<svg width="20" height="20" viewBox="0 0 20 20" fill="none" xmlns="http://www.w3.org/2000/svg">
<path d="M10 11.25V11.25C10.5453 11.25 11.0803 11.3982 11.5479 11.6787L11.9743 11.9346C13.7747 13.0148 16.068 12.8006 17.6373 11.4057L18.75 10.4167" stroke="#212121" stroke-width="0.833333" stroke-linecap="round"/>
<path d="M10 11.25V11.25C9.45471 11.25 8.91967 11.3982 8.45209 11.6787L8.02571 11.9346C6.22532 13.0148 3.93198 12.8006 2.36273 11.4057L1.25 10.4167" stroke="#212121" stroke-width="0.833333" stroke-linecap="round"/>
<path d="M16.6611 14.167C16.5606 16.0242 15.0229 17.4996 13.1406 17.5H6.85938C4.97695 17.4998 3.43845 16.0244 3.33789 14.167H4.17676C4.27611 15.5637 5.4374 16.6668 6.85938 16.667H13.1406C14.5624 16.6666 15.7229 15.5636 15.8223 14.167H16.6611ZM10 2.5C13.6817 2.5002 16.667 5.48522 16.667 9.16699V10.833H15.833V9.16699C15.833 5.94545 13.2215 3.33418 10 3.33398C6.77834 3.33398 4.16699 5.94533 4.16699 9.16699V10.833H3.33301V9.16699C3.33301 5.4851 6.3181 2.5 10 2.5Z" fill="#212121"/>
<rect x="11.667" y="5.83334" width="0.833333" height="0.833333" rx="0.416667" fill="#212121"/>
<rect x="9.16699" y="5" width="0.833333" height="0.833333" rx="0.416667" fill="#212121"/>
<rect x="13.333" y="7.5" width="0.833333" height="0.833333" rx="0.416667" fill="#212121"/>
</svg>
