<svg width="59" height="24" viewBox="0 0 59 24" fill="none" xmlns="http://www.w3.org/2000/svg">
<g clip-path="url(#clip0_162_4965)">
<path d="M58.2096 12.3454C58.2096 8.26217 56.2318 5.04022 52.4516 5.04022C48.6554 5.04022 46.3586 8.26228 46.3586 12.3136C46.3586 17.1145 49.0702 19.5389 52.9619 19.5389C54.8601 19.5389 56.2956 19.1083 57.3802 18.5022V15.3121C56.2957 15.8545 55.0515 16.1895 53.4724 16.1895C51.9252 16.1895 50.5535 15.6471 50.3781 13.765H58.1778C58.1778 13.5575 58.2096 12.7282 58.2096 12.3454ZM50.3302 10.8302C50.3302 9.02781 51.4309 8.27809 52.4357 8.27809C53.4086 8.27809 54.4454 9.02781 54.4454 10.8302H50.3302ZM40.202 5.04022C38.6387 5.04022 37.6339 5.77391 37.0757 6.28441L36.8682 5.29548H33.3593V23.8932L37.3468 23.048L37.3628 18.5341C37.937 18.9488 38.7823 19.5389 40.186 19.5389C43.0411 19.5389 45.6409 17.2421 45.6409 12.1859C45.625 7.56034 42.9932 5.04022 40.2019 5.04022M39.2448 16.0299C38.3038 16.0299 37.7454 15.695 37.3627 15.2803L37.3467 9.36269C37.7614 8.90019 38.3356 8.58123 39.2448 8.58123C40.6962 8.58123 41.7011 10.2081 41.7011 12.2975C41.7011 14.4349 40.7122 16.0299 39.2448 16.0299ZM27.8724 4.09918L31.8759 3.23787V0L27.8724 0.845383V4.09918ZM27.8724 5.3114H31.8759V19.2677H27.8724V5.3114ZM23.5819 6.49166L23.3266 5.3114H19.8814V19.2677H23.869V9.80938C24.8099 8.58123 26.405 8.80452 26.8995 8.97993V5.3114C26.3891 5.11996 24.5229 4.76905 23.5819 6.49166ZM15.6067 1.85024L11.7149 2.67959L11.699 15.4557C11.699 17.8164 13.4695 19.5548 15.8301 19.5548C17.138 19.5548 18.095 19.3156 18.6213 19.0285V15.7907C18.111 15.998 15.5908 16.7317 15.5908 14.3711V8.70875H18.6213V5.3114H15.5908L15.6067 1.85024ZM4.82443 9.36269C4.82443 8.74071 5.33482 8.50138 6.18031 8.50138C7.39243 8.50138 8.9236 8.86834 10.1358 9.52228V5.77391C8.81202 5.24759 7.50413 5.04022 6.18031 5.04022C2.94233 5.04022 0.789062 6.73099 0.789062 9.55424C0.789062 13.9563 6.85007 13.2546 6.85007 15.1527C6.85007 15.8863 6.21217 16.1256 5.31889 16.1256C3.99508 16.1256 2.30431 15.5833 0.964464 14.8496V18.6458C2.44787 19.2838 3.94719 19.5548 5.31889 19.5548C8.6365 19.5548 10.9174 17.9121 10.9174 15.057C10.9015 10.3039 4.82443 11.1491 4.82443 9.36269Z" fill="#635BFF"/>
</g>
<defs>
<clipPath id="clip0_162_4965">
<rect width="57.43" height="24" fill="white" transform="translate(0.785156)"/>
</clipPath>
</defs>
</svg>
